<svg id="svg" version="1.1" xmlns="http://www.w3.org/2000/svg" xmlns:xlink="http://www.w3.org/1999/xlink" width="400" height="400" viewBox="0, 0, 400,400"><g id="svgg"><path id="path0" d="M177.600 67.639 C 176.170 67.814,173.290 68.156,171.200 68.398 C 166.160 68.984,161.542 69.795,158.600 70.611 C 157.280 70.977,155.210 71.507,154.000 71.788 C 141.880 74.610,125.735 83.236,112.200 94.122 C 104.621 100.218,92.390 112.705,88.953 117.854 C 87.891 119.446,87.112 120.111,85.491 120.808 C 79.565 123.357,73.858 130.150,71.215 137.800 C 70.267 140.544,70.245 140.919,70.089 156.669 C 69.948 171.029,69.860 172.801,69.265 173.323 C 68.899 173.644,66.754 174.858,64.498 176.020 C 54.854 180.988,51.140 186.519,49.603 198.200 C 48.437 207.072,49.808 235.361,51.678 241.000 C 56.017 254.084,64.944 260.000,80.346 260.000 C 87.082 260.000,86.686 259.821,89.183 264.000 C 92.396 269.377,94.632 272.690,98.496 277.794 C 104.978 286.356,121.577 298.765,132.600 303.290 C 157.020 313.314,174.600 313.276,174.600 303.200 C 174.600 296.832,168.590 293.201,158.044 293.199 C 130.215 293.192,105.603 269.550,101.193 238.589 C 99.775 228.631,99.778 216.846,101.204 202.400 C 101.854 195.809,103.461 191.736,106.524 188.912 C 110.155 185.566,111.528 185.235,125.169 184.410 C 133.212 183.924,144.081 181.889,152.000 179.385 C 155.382 178.316,160.049 176.761,160.925 176.411 C 176.359 170.248,183.113 168.404,193.296 167.575 C 199.674 167.055,209.104 167.477,212.200 168.419 C 212.860 168.620,214.750 168.973,216.400 169.202 C 219.093 169.577,224.593 171.223,227.800 172.614 C 239.461 177.672,254.109 182.016,264.000 183.350 C 266.530 183.691,270.670 184.171,273.200 184.417 C 283.082 185.375,284.687 185.582,287.200 186.223 C 292.291 187.522,294.300 189.863,296.233 196.751 C 298.577 205.106,299.506 231.628,297.841 242.675 C 296.769 249.786,294.672 259.032,293.961 259.780 C 293.763 259.989,293.600 260.417,293.600 260.731 C 293.600 261.398,291.120 267.286,289.023 271.600 C 282.775 284.449,271.475 296.095,259.400 302.133 C 252.643 305.511,250.175 306.039,245.800 305.041 C 240.314 303.790,233.695 304.264,229.200 306.231 C 215.415 312.263,217.093 328.381,231.762 330.845 C 235.357 331.450,242.061 330.899,244.600 329.792 C 249.100 327.828,250.458 327.097,252.275 325.661 C 254.368 324.007,256.453 322.800,257.220 322.800 C 258.427 322.800,265.924 319.086,272.200 315.380 C 287.337 306.440,299.926 293.721,308.605 278.600 C 311.097 274.257,316.000 263.604,316.000 262.530 C 316.000 260.768,317.805 260.000,321.950 260.000 C 336.413 260.000,347.868 251.353,350.369 238.546 C 351.541 232.545,351.008 193.279,349.707 189.800 C 346.856 182.173,341.533 177.349,332.205 173.938 C 327.662 172.276,328.000 173.662,328.000 156.690 C 328.000 141.159,327.707 138.197,325.809 134.558 C 325.477 133.921,325.204 133.275,325.202 133.121 C 325.179 130.485,318.189 123.292,313.346 120.921 C 311.700 120.115,310.700 119.207,309.064 117.035 C 305.490 112.290,300.866 107.381,293.575 100.590 C 276.120 84.333,254.853 72.751,236.600 69.562 C 230.947 68.574,227.015 67.993,223.400 67.613 C 218.802 67.129,181.592 67.150,177.600 67.639 M244.680 96.621 C 248.596 96.962,253.060 97.487,254.600 97.787 C 256.140 98.087,258.120 98.445,259.000 98.584 C 261.323 98.949,265.919 99.991,268.000 100.625 C 268.990 100.926,270.880 101.476,272.200 101.847 C 280.607 104.206,292.429 110.838,296.316 115.374 C 309.071 130.260,306.375 157.432,291.286 166.065 C 285.183 169.557,280.391 170.470,272.400 169.665 C 263.440 168.761,255.344 166.605,246.600 162.793 C 227.003 154.251,215.572 144.728,208.914 131.400 C 205.103 123.769,203.926 122.800,198.472 122.800 C 194.547 122.800,192.248 124.422,190.840 128.184 C 188.117 135.463,184.941 139.988,177.400 147.335 C 171.867 152.725,155.669 162.027,147.350 164.591 C 145.398 165.193,143.080 165.918,142.200 166.203 C 140.667 166.698,138.626 167.243,133.400 168.553 C 107.997 174.919,91.119 159.641,94.348 133.200 C 96.757 113.471,116.233 100.482,148.400 97.153 C 150.710 96.914,153.590 96.583,154.800 96.418 C 159.490 95.778,237.018 95.953,244.680 96.621 M148.600 105.247 C 131.968 106.765,117.488 112.033,110.595 119.075 C 101.680 128.180,102.478 149.273,112.015 156.612 C 116.647 160.176,128.158 161.660,134.400 159.497 C 135.390 159.154,136.830 158.749,137.600 158.597 C 145.420 157.055,156.371 152.135,164.600 146.467 C 185.692 131.939,190.874 111.164,174.600 106.382 C 170.148 105.074,156.855 104.493,148.600 105.247 M229.200 105.472 C 215.151 107.618,211.411 114.471,217.016 127.800 C 225.371 147.668,266.925 166.678,283.818 158.361 C 291.042 154.805,294.770 145.538,293.620 134.000 C 292.196 119.721,284.326 112.847,263.400 107.603 C 256.113 105.776,235.583 104.498,229.200 105.472 M145.400 195.795 C 138.701 196.875,130.909 201.332,127.257 206.172 C 111.304 227.319,124.893 257.400,150.400 257.400 C 171.464 257.400,185.071 238.185,179.140 216.817 C 175.020 201.975,161.052 193.272,145.400 195.795 M242.788 195.973 C 228.372 198.640,218.655 210.972,218.656 226.600 C 218.656 232.393,218.841 233.383,220.934 238.800 C 230.260 262.933,263.765 264.116,275.122 240.712 C 281.105 228.385,278.866 212.906,269.781 203.769 C 268.256 202.235,263.556 198.800,262.982 198.800 C 262.839 198.800,262.154 198.533,261.460 198.208 C 256.827 196.030,248.117 194.988,242.788 195.973 M153.916 210.386 C 159.621 213.409,160.710 219.147,156.449 223.725 C 150.087 230.562,139.034 222.450,143.435 214.173 C 145.593 210.114,150.236 208.437,153.916 210.386 M247.451 210.246 C 254.599 213.226,255.230 221.876,248.572 225.616 C 244.300 228.015,237.745 224.509,236.981 219.415 C 236.041 213.142,241.961 207.957,247.451 210.246 " stroke="none" fill="#131313" fill-rule="evenodd"></path><path id="path1" d="M0.000 200.000 L 0.000 400.000 200.000 400.000 L 400.000 400.000 400.000 200.000 L 400.000 0.000 200.000 0.000 L 0.000 0.000 0.000 200.000 M223.400 67.613 C 227.015 67.993,230.947 68.574,236.600 69.562 C 254.853 72.751,276.120 84.333,293.575 100.590 C 300.866 107.381,305.490 112.290,309.064 117.035 C 310.700 119.207,311.700 120.115,313.346 120.921 C 318.189 123.292,325.179 130.485,325.202 133.121 C 325.204 133.275,325.477 133.921,325.809 134.558 C 327.707 138.197,328.000 141.159,328.000 156.690 C 328.000 173.662,327.662 172.276,332.205 173.938 C 341.533 177.349,346.856 182.173,349.707 189.800 C 351.008 193.279,351.541 232.545,350.369 238.546 C 347.868 251.353,336.413 260.000,321.950 260.000 C 317.805 260.000,316.000 260.768,316.000 262.530 C 316.000 263.604,311.097 274.257,308.605 278.600 C 299.926 293.721,287.337 306.440,272.200 315.380 C 265.924 319.086,258.427 322.800,257.220 322.800 C 256.453 322.800,254.368 324.007,252.275 325.661 C 250.458 327.097,249.100 327.828,244.600 329.792 C 242.061 330.899,235.357 331.450,231.762 330.845 C 222.262 329.249,217.315 321.294,220.992 313.527 C 224.407 306.315,235.199 302.623,245.800 305.041 C 250.175 306.039,252.643 305.511,259.400 302.133 C 271.475 296.095,282.775 284.449,289.023 271.600 C 291.120 267.286,293.600 261.398,293.600 260.731 C 293.600 260.417,293.763 259.989,293.961 259.780 C 294.672 259.032,296.769 249.786,297.841 242.675 C 299.506 231.628,298.577 205.106,296.233 196.751 C 294.300 189.863,292.291 187.522,287.200 186.223 C 284.687 185.582,283.082 185.375,273.200 184.417 C 259.680 183.105,254.533 182.056,243.527 178.369 C 236.822 176.122,230.857 173.940,227.800 172.614 C 224.593 171.223,219.093 169.577,216.400 169.202 C 214.750 168.973,212.860 168.620,212.200 168.419 C 209.104 167.477,199.674 167.055,193.296 167.575 C 183.113 168.404,176.359 170.248,160.925 176.411 C 160.049 176.761,155.382 178.316,152.000 179.385 C 144.081 181.889,133.212 183.924,125.169 184.410 C 109.974 185.329,106.747 186.534,103.820 192.384 C 98.904 202.206,98.790 233.267,103.611 249.400 C 111.218 274.854,134.009 293.193,158.044 293.199 C 168.590 293.201,174.600 296.832,174.600 303.200 C 174.600 313.276,157.020 313.314,132.600 303.290 C 121.577 298.765,104.978 286.356,98.496 277.794 C 94.632 272.690,92.396 269.377,89.183 264.000 C 86.686 259.821,87.082 260.000,80.346 260.000 C 64.944 260.000,56.017 254.084,51.678 241.000 C 49.808 235.361,48.437 207.072,49.603 198.200 C 51.140 186.519,54.854 180.988,64.498 176.020 C 66.754 174.858,68.899 173.644,69.265 173.323 C 69.860 172.801,69.948 171.029,70.089 156.669 C 70.245 140.919,70.267 140.544,71.215 137.800 C 73.858 130.150,79.565 123.357,85.491 120.808 C 87.112 120.111,87.891 119.446,88.953 117.854 C 92.390 112.705,104.621 100.218,112.200 94.122 C 125.735 83.236,141.880 74.610,154.000 71.788 C 155.210 71.507,157.280 70.977,158.600 70.611 C 161.542 69.795,166.160 68.984,171.200 68.398 C 173.290 68.156,176.170 67.814,177.600 67.639 C 181.592 67.150,218.802 67.129,223.400 67.613 M154.800 96.418 C 153.590 96.583,150.710 96.914,148.400 97.153 C 116.233 100.482,96.757 113.471,94.348 133.200 C 91.119 159.641,107.997 174.919,133.400 168.553 C 138.626 167.243,140.667 166.698,142.200 166.203 C 143.080 165.918,145.398 165.193,147.350 164.591 C 155.669 162.027,171.867 152.725,177.400 147.335 C 184.941 139.988,188.117 135.463,190.840 128.184 C 192.248 124.422,194.547 122.800,198.472 122.800 C 203.926 122.800,205.103 123.769,208.914 131.400 C 215.572 144.728,227.003 154.251,246.600 162.793 C 255.344 166.605,263.440 168.761,272.400 169.665 C 280.391 170.470,285.183 169.557,291.286 166.065 C 306.375 157.432,309.071 130.260,296.316 115.374 C 292.429 110.838,280.607 104.206,272.200 101.847 C 270.880 101.476,268.990 100.926,268.000 100.625 C 265.919 99.991,261.323 98.949,259.000 98.584 C 258.120 98.445,256.140 98.087,254.600 97.787 C 246.600 96.228,238.968 95.998,197.280 96.059 C 175.126 96.091,156.010 96.253,154.800 96.418 M170.800 105.521 C 180.270 107.203,184.000 110.710,184.000 117.932 C 184.000 131.343,170.402 145.793,149.244 154.867 C 146.486 156.050,140.032 158.117,137.600 158.597 C 136.830 158.749,135.390 159.154,134.400 159.497 C 131.271 160.581,119.206 160.433,116.453 159.277 C 108.691 156.016,104.342 147.928,104.367 136.801 C 104.406 119.783,114.291 111.486,140.600 106.387 C 148.270 104.901,164.660 104.431,170.800 105.521 M255.400 106.209 C 261.590 107.130,263.083 107.447,268.698 109.038 C 287.677 114.416,295.675 124.941,293.594 141.800 C 291.466 159.048,280.272 164.063,258.000 157.746 C 240.121 152.674,221.868 139.338,217.016 127.800 C 211.411 114.471,215.151 107.618,229.200 105.472 C 232.944 104.901,249.784 105.374,255.400 106.209 M154.893 195.646 C 169.479 197.886,178.804 208.127,180.346 223.600 C 182.908 249.307,155.999 266.473,134.400 252.911 C 119.438 243.517,116.010 221.081,127.257 206.172 C 132.938 198.643,144.852 194.105,154.893 195.646 M257.800 196.780 C 259.120 197.239,260.767 197.882,261.460 198.208 C 262.154 198.533,262.839 198.800,262.982 198.800 C 264.551 198.800,270.666 204.293,273.001 207.800 C 287.590 229.713,272.047 258.913,246.568 257.457 C 233.056 256.686,224.153 249.138,219.370 234.400 C 216.363 225.134,220.502 210.354,228.055 203.391 C 235.525 196.503,248.636 193.589,257.800 196.780 M147.375 210.317 C 142.937 212.792,141.228 217.326,143.199 221.398 C 147.036 229.324,158.933 226.772,158.933 218.024 C 158.933 212.138,152.182 207.636,147.375 210.317 M241.879 210.375 C 235.335 213.428,235.182 222.311,241.618 225.476 C 245.824 227.545,250.156 225.998,252.383 221.633 C 255.677 215.176,248.370 207.345,241.879 210.375 " stroke="none" fill="#ffffff" fill-rule="evenodd"></path></g></svg>