<?xml version="1.0" standalone="no"?>
<!DOCTYPE svg PUBLIC "-//W3C//DTD SVG 20010904//EN"
 "http://www.w3.org/TR/2001/REC-SVG-20010904/DTD/svg10.dtd">
<svg version="1.0" xmlns="http://www.w3.org/2000/svg"
 width="297.000000pt" height="295.000000pt" viewBox="0 0 297.000000 295.000000"
 preserveAspectRatio="xMidYMid meet">

<g transform="translate(0.000000,295.000000) scale(0.100000,-0.100000)"
fill="#000000" stroke="none">
<path d="M1339 2826 c-42 -11 -196 -94 -344 -186 -33 -20 -91 -55 -130 -77
-38 -22 -131 -76 -205 -120 -74 -44 -162 -95 -195 -113 -110 -62 -181 -151
-211 -265 -20 -72 -20 -1035 0 -1116 30 -129 97 -202 286 -313 74 -44 155 -92
180 -106 76 -45 330 -194 430 -252 181 -106 172 -103 300 -103 114 0 116 0
189 38 41 21 100 53 130 72 31 18 119 70 196 115 77 45 166 98 197 117 32 19
68 39 80 46 116 62 277 167 310 200 48 50 91 133 107 205 15 73 15 1001 0
1074 -7 29 -23 76 -36 105 -44 93 -99 135 -394 307 -333 193 -377 219 -456
268 -34 21 -65 38 -69 38 -3 0 -19 10 -36 21 -73 53 -225 73 -329 45z m256
-102 c22 -11 184 -105 360 -208 176 -104 354 -208 395 -231 130 -75 155 -98
194 -176 l36 -72 0 -532 0 -532 -31 -61 c-34 -70 -85 -122 -156 -162 -55 -30
-179 -103 -543 -317 -140 -83 -273 -156 -295 -163 -53 -18 -159 -16 -212 3
-23 9 -104 53 -180 98 -76 45 -167 99 -203 119 -36 21 -126 74 -200 117 -74
44 -170 101 -213 126 -105 61 -153 107 -188 181 l-29 61 0 532 0 532 23 53
c35 79 68 111 175 174 53 31 133 78 177 104 44 26 136 80 205 120 69 40 185
108 258 152 73 44 150 86 170 93 57 22 206 16 257 -11z"/>
<path d="M1300 2404 c-295 -54 -528 -229 -663 -499 -72 -144 -92 -233 -92
-405 0 -129 3 -155 28 -239 59 -198 201 -395 367 -508 182 -123 443 -186 639
-153 568 96 919 656 741 1183 -149 438 -582 702 -1020 621z m193 -361 c10 -18
34 -68 52 -110 18 -43 75 -170 125 -283 238 -529 225 -497 210 -515 -7 -8 -19
-15 -27 -15 -15 0 -215 118 -328 193 -33 22 -64 40 -70 40 -5 0 -66 -36 -135
-79 -225 -143 -249 -156 -275 -150 -15 4 -25 14 -25 24 0 18 76 196 174 412
70 153 120 264 176 393 60 138 84 156 123 90z"/>
</g>
</svg>
