<svg id="svg" version="1.1" xmlns="http://www.w3.org/2000/svg" xmlns:xlink="http://www.w3.org/1999/xlink" width="400" height="400" viewBox="0, 0, 400,400"><g id="svgg"><path id="path0" d="M177.600 67.639 C 176.170 67.814,173.290 68.156,171.200 68.398 C 166.160 68.984,161.542 69.795,158.600 70.611 C 157.280 70.977,155.210 71.507,154.000 71.788 C 141.880 74.610,125.735 83.236,112.200 94.122 C 104.621 100.218,92.390 112.705,88.953 117.854 C 87.891 119.446,87.112 120.111,85.491 120.808 C 79.565 123.357,73.858 130.150,71.215 137.800 C 70.267 140.544,70.245 140.919,70.089 156.669 C 69.948 171.029,69.860 172.801,69.265 173.323 C 68.899 173.644,66.754 174.858,64.498 176.020 C 54.854 180.988,51.140 186.519,49.603 198.200 C 48.437 207.072,49.808 235.361,51.678 241.000 C 56.017 254.084,64.944 260.000,80.346 260.000 C 87.082 260.000,86.686 259.821,89.183 264.000 C 92.396 269.377,94.632 272.690,98.496 277.794 C 104.978 286.356,121.577 298.765,132.600 303.290 C 157.020 313.314,174.600 313.276,174.600 303.200 C 174.600 296.832,168.590 293.201,158.044 293.199 C 130.215 293.192,105.603 269.550,101.193 238.589 C 99.775 228.631,99.778 216.846,101.204 202.400 C 101.854 195.809,103.461 191.736,106.524 188.912 C 110.155 185.566,111.528 185.235,125.169 184.410 C 133.212 183.924,144.081 181.889,152.000 179.385 C 155.382 178.316,160.049 176.761,160.925 176.411 C 176.359 170.248,183.113 168.404,193.296 167.575 C 199.674 167.055,209.104 167.477,212.200 168.419 C 212.860 168.620,214.750 168.973,216.400 169.202 C 219.093 169.577,224.593 171.223,227.800 172.614 C 239.461 177.672,254.109 182.016,264.000 183.350 C 266.530 183.691,270.670 184.171,273.200 184.417 C 283.082 185.375,284.687 185.582,287.200 186.223 C 292.291 187.522,294.300 189.863,296.233 196.751 C 298.577 205.106,299.506 231.628,297.841 242.675 C 296.769 249.786,294.672 259.032,293.961 259.780 C 293.763 259.989,293.600 260.417,293.600 260.731 C 293.600 261.398,291.120 267.286,289.023 271.600 C 282.775 284.449,271.475 296.095,259.400 302.133 C 252.643 305.511,250.175 306.039,245.800 305.041 C 240.314 303.790,233.695 304.264,229.200 306.231 C 215.415 312.263,217.093 328.381,231.762 330.845 C 235.357 331.450,242.061 330.899,244.600 329.792 C 249.100 327.828,250.458 327.097,252.275 325.661 C 254.368 324.007,256.453 322.800,257.220 322.800 C 258.427 322.800,265.924 319.086,272.200 315.380 C 287.337 306.440,299.926 293.721,308.605 278.600 C 311.097 274.257,316.000 263.604,316.000 262.530 C 316.000 260.768,317.805 260.000,321.950 260.000 C 336.413 260.000,347.868 251.353,350.369 238.546 C 351.541 232.545,351.008 193.279,349.707 189.800 C 346.856 182.173,341.533 177.349,332.205 173.938 C 327.662 172.276,328.000 173.662,328.000 156.690 C 328.000 141.159,327.707 138.197,325.809 134.558 C 325.477 133.921,325.204 133.275,325.202 133.121 C 325.179 130.485,318.189 123.292,313.346 120.921 C 311.700 120.115,310.700 119.207,309.064 117.035 C 305.490 112.290,300.866 107.381,293.575 100.590 C 276.120 84.333,254.853 72.751,236.600 69.562 C 230.947 68.574,227.015 67.993,223.400 67.613 C 218.802 67.129,181.592 67.150,177.600 67.639 M244.680 96.621 C 248.596 96.962,253.060 97.487,254.600 97.787 C 256.140 98.087,258.120 98.445,259.000 98.584 C 261.323 98.949,265.919 99.991,268.000 100.625 C 268.990 100.926,270.880 101.476,272.200 101.847 C 280.607 104.206,292.429 110.838,296.316 115.374 C 309.071 130.260,306.375 157.432,291.286 166.065 C 285.183 169.557,280.391 170.470,272.400 169.665 C 263.440 168.761,255.344 166.605,246.600 162.793 C 227.003 154.251,215.572 144.728,208.914 131.400 C 205.103 123.769,203.926 122.800,198.472 122.800 C 194.547 122.800,192.248 124.422,190.840 128.184 C 188.117 135.463,184.941 139.988,177.400 147.335 C 171.867 152.725,155.669 162.027,147.350 164.591 C 145.398 165.193,143.080 165.918,142.200 166.203 C 140.667 166.698,138.626 167.243,133.400 168.553 C 107.997 174.919,91.119 159.641,94.348 133.200 C 96.757 113.471,116.233 100.482,148.400 97.153 C 150.710 96.914,153.590 96.583,154.800 96.418 C 159.490 95.778,237.018 95.953,244.680 96.621 M148.600 105.247 C 131.968 106.765,117.488 112.033,110.595 119.075 C 101.680 128.180,102.478 149.273,112.015 156.612 C 116.647 160.176,128.158 161.660,134.400 159.497 C 135.390 159.154,136.830 158.749,137.600 158.597 C 145.420 157.055,156.371 152.135,164.600 146.467 C 185.692 131.939,190.874 111.164,174.600 106.382 C 170.148 105.074,156.855 104.493,148.600 105.247 M229.200 105.472 C 215.151 107.618,211.411 114.471,217.016 127.800 C 225.371 147.668,266.925 166.678,283.818 158.361 C 291.042 154.805,294.770 145.538,293.620 134.000 C 292.196 119.721,284.326 112.847,263.400 107.603 C 256.113 105.776,235.583 104.498,229.200 105.472 M145.400 195.795 C 138.701 196.875,130.909 201.332,127.257 206.172 C 111.304 227.319,124.893 257.400,150.400 257.400 C 171.464 257.400,185.071 238.185,179.140 216.817 C 175.020 201.975,161.052 193.272,145.400 195.795 M242.788 195.973 C 228.372 198.640,218.655 210.972,218.656 226.600 C 218.656 232.393,218.841 233.383,220.934 238.800 C 230.260 262.933,263.765 264.116,275.122 240.712 C 281.105 228.385,278.866 212.906,269.781 203.769 C 268.256 202.235,263.556 198.800,262.982 198.800 C 262.839 198.800,262.154 198.533,261.460 198.208 C 256.827 196.030,248.117 194.988,242.788 195.973 M153.916 210.386 C 159.621 213.409,160.710 219.147,156.449 223.725 C 150.087 230.562,139.034 222.450,143.435 214.173 C 145.593 210.114,150.236 208.437,153.916 210.386 M247.451 210.246 C 254.599 213.226,255.230 221.876,248.572 225.616 C 244.300 228.015,237.745 224.509,236.981 219.415 C 236.041 213.142,241.961 207.957,247.451 210.246 " stroke="none" fill="#000000" fill-rule="evenodd"></path></g></svg>
