<svg id="svg" version="1.1" xmlns="http://www.w3.org/2000/svg" xmlns:xlink="http://www.w3.org/1999/xlink" width="400" height="397.30639730639734" viewBox="0, 0, 400,397.30639730639734"><g id="svgg"><path id="path0" d="M164.414 87.477 C 148.172 90.134,134.203 98.521,124.017 111.730 C 121.554 114.923,117.660 121.452,117.071 123.375 C 116.923 123.859,116.665 124.433,116.500 124.652 C 115.989 125.325,113.410 133.298,113.123 135.095 C 112.799 137.112,112.630 137.220,107.279 138.809 C 83.981 145.731,67.724 164.173,62.804 189.264 C 61.963 193.557,61.617 205.356,62.227 208.966 C 63.283 215.209,63.709 216.903,65.622 222.465 C 71.635 239.950,85.202 254.306,101.720 260.662 C 103.179 261.224,105.000 261.937,105.765 262.248 C 106.531 262.558,108.030 262.999,109.096 263.228 C 111.905 263.831,112.443 264.232,112.962 266.110 C 114.794 272.733,115.766 275.349,118.169 280.119 C 132.417 308.408,166.344 322.045,196.553 311.627 L 200.064 310.416 204.005 311.661 C 226.523 318.775,248.311 314.752,266.692 300.085 C 275.572 293.000,283.757 280.192,287.570 267.415 L 288.513 264.253 293.263 262.742 C 298.929 260.940,310.089 255.611,311.332 254.114 C 311.441 253.982,312.321 253.338,313.288 252.683 C 322.480 246.448,330.995 234.620,335.902 221.272 C 339.590 211.238,340.104 195.568,337.107 184.493 C 330.740 160.957,314.542 144.625,291.076 138.080 L 288.514 137.366 287.419 133.792 C 280.756 112.060,266.897 97.102,246.918 90.079 C 234.972 85.880,218.633 85.481,206.561 89.093 C 201.337 90.656,200.103 90.852,198.501 90.369 C 191.844 88.363,189.700 87.846,185.772 87.302 C 179.765 86.469,170.086 86.548,164.414 87.477 M186.481 112.857 C 191.075 114.261,192.581 114.900,196.210 116.990 C 200.339 119.367,200.558 119.384,203.304 117.566 C 212.758 111.309,228.757 109.870,240.159 114.254 C 256.260 120.443,266.530 137.967,264.431 155.673 C 263.709 161.765,263.915 161.974,270.179 161.496 C 295.395 159.572,313.824 176.056,313.893 200.596 C 313.934 215.521,306.755 228.320,294.632 234.934 C 286.068 239.607,279.344 241.078,270.583 240.196 C 263.969 239.531,263.684 239.824,264.449 246.518 C 266.905 268.028,250.423 288.133,228.934 289.839 C 219.085 290.620,211.447 288.683,202.237 283.067 C 200.603 282.071,199.681 282.109,198.005 283.242 C 195.101 285.205,189.784 287.616,185.247 289.027 C 178.384 291.161,166.617 289.977,158.979 286.383 C 142.675 278.711,134.786 263.890,136.562 244.269 C 136.966 239.809,136.692 239.626,130.438 240.175 C 93.011 243.459,72.325 199.640,98.366 172.237 C 106.025 164.177,117.882 160.259,130.925 161.476 C 136.728 162.018,136.967 161.814,136.497 156.696 C 134.358 133.420,147.039 115.964,168.986 111.971 C 171.756 111.468,183.954 112.085,186.481 112.857 M167.574 173.922 C 163.890 175.598,160.108 179.890,158.259 184.493 C 157.776 185.696,157.196 187.127,156.971 187.674 C 153.571 195.911,154.815 210.320,159.672 218.960 C 168.919 235.408,186.057 227.801,188.994 205.944 C 191.677 185.979,179.870 168.328,167.574 173.922 M225.751 173.564 C 220.706 175.417,215.843 181.765,214.026 188.867 C 213.719 190.070,213.281 191.769,213.053 192.644 C 211.885 197.137,212.872 210.150,214.682 214.115 C 214.882 214.553,215.496 215.904,216.046 217.119 C 217.468 220.256,220.324 223.981,222.336 225.320 C 225.482 227.416,226.190 227.635,229.783 227.624 C 233.344 227.612,233.294 227.630,237.092 225.121 C 238.949 223.894,241.848 220.098,243.192 217.132 C 243.746 215.910,244.363 214.553,244.562 214.115 C 246.741 209.343,247.340 197.109,245.713 190.654 C 242.463 177.762,234.014 170.529,225.751 173.564 " stroke="none" fill="#000000" fill-rule="evenodd"></path></g></svg>
